<svg xmlns="http://www.w3.org/2000/svg" width="147" height="22" viewBox="0 0 147 22">
    <g fill="none" fill-rule="evenodd">
        <g fill-rule="nonzero">
            <g>
                <g>
                    <g>
                        <g>
                            <path fill="#3C6" d="M26.185 11.14c0-1.71-.462-3.088-1.37-4.098-.91-1.01-2.168-1.524-3.731-1.524-1.025-.015-2.035.252-2.92.772-.858.519-1.55 1.272-1.996 2.173-.468.928-.707 2.005-.707 3.202 0 1.87.542 3.366 1.61 4.447 1.068 1.08 2.546 1.63 4.394 1.63.645-.006 1.287-.095 1.909-.266.64-.168 1.256-.418 1.832-.746.588-.328.888-.745.888-1.224.009-.256-.072-.507-.228-.709-.144-.184-.364-.29-.597-.286-.197.012-.388.067-.562.162-.218.106-.35.173-.394.203-.435.236-.884.442-1.346.617-.482.166-.99.245-1.498.234-2.162 0-3.298-1.171-3.472-3.568h7.272c.606 0 .916-.343.916-1.018zm-8.189-.49c.116-1.01.443-1.81.973-2.371.529-.561 1.267-.863 2.163-.863.879 0 1.57.286 2.053.852.484.567.743 1.357.8 2.386l-5.989-.003zM35.115 11.546l3.523-3.941c.235-.22.371-.529.375-.852.003-.312-.125-.61-.352-.823-.213-.216-.502-.339-.805-.34-.348.006-.677.161-.903.427L33.56 9.874l-3.394-3.858c-.266-.284-.562-.426-.879-.426-.302 0-.592.123-.805.34-.227.211-.355.51-.352.822 0 .285.126.572.373.852l3.525 3.94-3.712 4.107c-.222.228-.347.534-.35.853-.002.311.12.61.34.831.21.229.507.357.817.354.318 0 .614-.144.88-.426l3.563-4.047 3.588 4.047c.264.282.56.426.878.426.638-.001 1.156-.52 1.157-1.162.001-.332-.134-.65-.373-.878l-3.7-4.103zM46.694 5.518c-.735.005-1.466.097-2.178.276-.683.16-1.344.407-1.964.735-.259.138-.488.326-.673.554-.142.194-.216.43-.212.67-.01.258.077.511.242.71.155.185.385.29.626.285.187 0 .492-.12.929-.364.52-.245 1.057-.451 1.607-.617.504-.144 1.026-.216 1.55-.213.784 0 1.36.193 1.71.576.35.382.53 1.018.53 1.888v.633h-.482c-1.77 0-3.173.106-4.17.32-.998.212-1.746.576-2.196 1.065-.45.488-.675 1.19-.659 2.06-.01.669.186 1.326.56 1.88.38.559.9 1.006 1.508 1.299.657.319 1.378.48 2.107.472.74.015 1.471-.174 2.112-.547.526-.318.957-.774 1.245-1.318v.607c-.023.327.097.648.328.88.23.232.55.352.876.33.38 0 .682-.107.9-.32.22-.213.328-.511.328-.894v-6.177c0-1.598-.385-2.81-1.146-3.599-.762-.788-1.932-1.19-3.478-1.19zm2.169 6.617v.556c0 .917-.275 1.677-.815 2.258-.54.58-1.243.874-2.091.874-.55.018-1.085-.172-1.501-.533-.392-.34-.61-.839-.597-1.359 0-.471.137-.837.407-1.085.27-.248.742-.436 1.392-.545.65-.11 1.616-.166 2.841-.166h.364zM57.343.87c-.314-.265-.715-.402-1.125-.385-.473 0-.855.13-1.135.386-.286.267-.44.646-.424 1.038-.014.394.14.776.424 1.049.28.264.662.4 1.136.4.474 0 .857-.136 1.137-.4.284-.273.438-.655.424-1.05.015-.394-.145-.774-.437-1.038zM56.218 5.566c-.33-.011-.654.1-.908.313-.244.213-.367.521-.367.92v9.684c0 .4.124.706.368.909.257.206.578.312.907.301.325.012.644-.095.897-.301.236-.204.356-.51.356-.909V6.798c0-.398-.12-.707-.355-.918-.25-.214-.57-.326-.898-.314zM63.342.823c-.25-.216-.57-.33-.899-.32-.33-.01-.654.102-.909.315-.243.213-.366.52-.366.92v14.745c0 .4.123.706.367.909.257.206.58.313.908.301.326.012.645-.095.898-.301.235-.204.354-.51.354-.909V1.741c0-.398-.119-.707-.353-.918zM13.765 16.167L8.958 8.985c-.233-.348-.633-.545-1.05-.516-.416.028-.786.278-.97.654-.183.377-.153.823.08 1.171l4.808 7.182c.36.538 1.086.68 1.621.319.536-.361.678-1.09.318-1.628z" transform="translate(-107 -30) translate(53 30) translate(54) translate(1) translate(80)"/>
                            <path fill="#FFF" d="M14.044 1.779C13.505.987 12.61.517 11.655.523H7.213c-.596.019-1.07.51-1.07 1.11 0 .599.474 1.09 1.07 1.109h4.442c.229 0 .443.112.574.3.13.19.16.43.08.645L10.944 7.36c-.21.557-.74.926-1.334.928h-6.41l.177 2.219H9.61c1.514-.005 2.868-.948 3.403-2.37l1.366-3.672c.34-.895.215-1.902-.334-2.685z" transform="translate(-107 -30) translate(53 30) translate(54) translate(1) translate(80)"/>
                            <path fill="#3C6" d="M4.455 16.74V1.106C4.402.478 3.867.004 3.24.028H1.195C.865.026.55.165.326.41c-.222.246-.33.575-.297.905.074.612.596 1.069 1.21 1.06h.594c.208-.001.382.156.404.363l-.116 14.175c.048.611.556 1.084 1.167 1.086h.094c.309-.024.596-.172.797-.409.203-.235.302-.542.276-.851z" transform="translate(-107 -30) translate(53 30) translate(54) translate(1) translate(80)"/>
                        </g>
                        <path fill="#FFF" d="M.792 18.07c.177 0 .317-.054.42-.161.103-.107.154-.25.154-.427v-3.528h2.758c1.027 0 1.83-.257 2.408-.77.579-.513.868-1.232.868-2.156 0-.924-.287-1.638-.861-2.142-.574-.504-1.379-.756-2.415-.756H.806c-.177 0-.32.051-.427.154-.107.103-.161.238-.161.406v8.792c0 .177.051.32.154.427.103.107.243.161.42.161zm3.22-5.068H1.366v-3.92h2.646c1.503 0 2.254.649 2.254 1.946 0 1.316-.751 1.974-2.254 1.974zm7.872 5.096c.644 0 1.213-.145 1.708-.434.495-.29.875-.702 1.141-1.239.266-.537.399-1.16.399-1.869 0-.71-.133-1.332-.399-1.869-.266-.537-.646-.95-1.141-1.239-.495-.29-1.064-.434-1.708-.434-.644 0-1.211.145-1.701.434-.49.29-.868.702-1.134 1.239-.266.537-.399 1.16-.399 1.869 0 .71.133 1.332.399 1.869.266.537.644.95 1.134 1.239.49.29 1.057.434 1.701.434zm0-.938c-.672 0-1.188-.224-1.547-.672-.36-.448-.539-1.092-.539-1.932 0-.83.182-1.472.546-1.925.364-.453.877-.679 1.54-.679s1.176.226 1.54.679c.364.453.546 1.094.546 1.925 0 .85-.18 1.496-.539 1.939-.36.443-.875.665-1.547.665zm12.422.882c.13 0 .25-.035.357-.105.107-.07.189-.166.245-.287l2.324-5.88c.028-.075.042-.145.042-.21 0-.14-.056-.257-.168-.35-.112-.093-.238-.14-.378-.14-.215 0-.369.112-.462.336l-1.932 5.138-1.974-5.11c-.047-.121-.119-.215-.217-.28-.098-.065-.208-.098-.329-.098-.112 0-.217.033-.315.098s-.175.159-.231.28l-1.974 5.124-1.918-5.166c-.093-.224-.252-.336-.476-.336-.15 0-.287.051-.413.154-.126.103-.189.229-.189.378 0 .056.014.121.042.196l2.324 5.866c.056.121.14.217.252.287.112.07.229.105.35.105.13 0 .252-.035.364-.105.112-.07.191-.166.238-.287l1.918-4.914 1.932 4.914c.056.121.138.217.245.287.107.07.222.105.343.105zm7.55.056c.355 0 .719-.049 1.092-.147.373-.098.728-.245 1.064-.441.327-.196.49-.41.49-.644 0-.13-.037-.238-.112-.322-.075-.084-.163-.126-.266-.126-.084 0-.247.07-.49.21-.299.168-.579.301-.84.399-.261.098-.574.147-.938.147-1.437 0-2.198-.803-2.282-2.408h4.508c.168 0 .29-.042.364-.126.075-.084.112-.22.112-.406 0-.99-.261-1.773-.784-2.352s-1.227-.868-2.114-.868c-.625 0-1.183.15-1.673.448-.49.299-.87.716-1.141 1.253-.27.537-.406 1.155-.406 1.855 0 1.101.306 1.965.917 2.59.611.625 1.444.938 2.499.938zm1.708-4.06h-3.962c.065-.681.278-1.209.637-1.582.36-.373.838-.56 1.435-.56.588 0 1.045.184 1.372.553.327.369.5.898.518 1.589zm3.434 4.032c.168 0 .303-.047.406-.14.103-.093.154-.233.154-.42v-3.402c0-.523.152-.978.455-1.365.303-.387.768-.609 1.393-.665l.42-.042c.205-.019.35-.072.434-.161.084-.089.126-.208.126-.357 0-.345-.196-.504-.588-.476l-.196.014c-.467.037-.88.163-1.239.378-.36.215-.637.527-.833.938v-.784c0-.168-.051-.301-.154-.399-.103-.098-.229-.147-.378-.147-.159 0-.294.049-.406.147-.112.098-.168.236-.168.413v5.908c0 .177.054.315.161.413.107.098.245.147.413.147zm7.438.028c.355 0 .719-.049 1.092-.147.373-.098.728-.245 1.064-.441.327-.196.49-.41.49-.644 0-.13-.037-.238-.112-.322-.075-.084-.163-.126-.266-.126-.084 0-.247.07-.49.21-.299.168-.579.301-.84.399-.261.098-.574.147-.938.147-1.437 0-2.198-.803-2.282-2.408h4.508c.168 0 .29-.042.364-.126.075-.084.112-.22.112-.406 0-.99-.261-1.773-.784-2.352s-1.227-.868-2.114-.868c-.625 0-1.183.15-1.673.448-.49.299-.87.716-1.141 1.253-.27.537-.406 1.155-.406 1.855 0 1.101.306 1.965.917 2.59.611.625 1.444.938 2.499.938zm1.708-4.06h-3.962c.065-.681.278-1.209.637-1.582.36-.373.838-.56 1.435-.56.588 0 1.045.184 1.372.553.327.369.5.898.518 1.589zm5.478 4.06c.532 0 .996-.117 1.393-.35.397-.233.698-.565.903-.994v.756c0 .168.049.303.147.406.098.103.236.154.413.154s.317-.051.42-.154c.103-.103.154-.238.154-.406V8.606c0-.159-.051-.29-.154-.392-.103-.103-.243-.154-.42-.154s-.315.049-.413.147c-.098.098-.147.231-.147.399v3.752c-.205-.43-.506-.76-.903-.994-.397-.233-.861-.35-1.393-.35-.597 0-1.125.145-1.582.434-.457.29-.812.7-1.064 1.232s-.378 1.148-.378 1.848c0 .71.126 1.332.378 1.869.252.537.607.954 1.064 1.253.457.299.985.448 1.582.448zm.224-.938c-.663 0-1.178-.231-1.547-.693-.369-.462-.553-1.108-.553-1.939 0-.812.184-1.442.553-1.89.369-.448.884-.672 1.547-.672.663 0 1.174.224 1.533.672.36.448.539 1.087.539 1.918 0 .83-.18 1.472-.539 1.925-.36.453-.87.679-1.533.679zm12.748.938c.597 0 1.125-.15 1.582-.448.457-.299.812-.716 1.064-1.253.252-.537.378-1.16.378-1.869 0-.7-.126-1.316-.378-1.848s-.607-.943-1.064-1.232c-.457-.29-.985-.434-1.582-.434-.532 0-.996.117-1.393.35-.397.233-.698.565-.903.994V8.606c0-.168-.049-.301-.147-.399-.098-.098-.236-.147-.413-.147s-.317.051-.42.154c-.103.103-.154.233-.154.392v8.904c0 .168.051.303.154.406.103.103.243.154.42.154s.315-.051.413-.154c.098-.103.147-.238.147-.406v-.756c.205.43.506.76.903.994.397.233.861.35 1.393.35zm-.224-.938c-.663 0-1.174-.226-1.533-.679-.36-.453-.539-1.094-.539-1.925 0-.83.18-1.47.539-1.918.36-.448.87-.672 1.533-.672.663 0 1.176.224 1.54.672.364.448.546 1.078.546 1.89 0 .83-.182 1.477-.546 1.939-.364.462-.877.693-1.54.693zm6.542 3.416c.093 0 .184-.028.273-.084.089-.056.156-.135.203-.238l3.934-8.484c.037-.065.056-.14.056-.224 0-.14-.056-.257-.168-.35-.112-.093-.238-.14-.378-.14-.224 0-.387.112-.49.336l-2.338 5.222-2.338-5.25c-.047-.103-.114-.182-.203-.238-.089-.056-.18-.084-.273-.084-.15 0-.287.051-.413.154-.126.103-.189.224-.189.364 0 .075.019.145.056.21l2.772 5.992-.98 2.114c-.037.075-.056.15-.056.224 0 .14.054.254.161.343.107.089.231.133.371.133z" transform="translate(-107 -30) translate(53 30) translate(54) translate(1)"/>
                    </g>
                </g>
            </g>
        </g>
    </g>
</svg>
