<svg xmlns="http://www.w3.org/2000/svg" width="12" height="12" viewBox="0 0 12 12">
    <g fill="none" fill-rule="evenodd">
        <g stroke="white" fill="#FFF" stroke-width="0.8">
            <g>
                <g>
                    <g>
                        <g>
                            <path d="M5.977 12c-.651 0-1-.477-1-1.151V7.035H1.163c-.686 0-1.163-.36-1.163-1C0 5.372.442 5 1.163 5h3.814V1.151c0-.674.349-1.151 1-1.151.65 0 1.046.453 1.046 1.151V5h3.826C11.559 5 12 5.372 12 6.035c0 .64-.465 1-1.151 1H7.023v3.814c0 .697-.395 1.151-1.046 1.151z"
                                  transform="translate(-1277.000000, -499.000000) translate(682.000000, 236.000000) translate(460.000000, 0.000000) translate(41.000000, 254.000000) translate(94.000000, 9.000000)"/>
                        </g>
                    </g>
                </g>
            </g>
        </g>
    </g>
</svg>
