<svg xmlns="http://www.w3.org/2000/svg" width="16" height="16" viewBox="0 0 16 16">
    <g fill="none" fill-rule="evenodd">
        <g fill="#fff" fill-rule="nonzero">
            <path d="M8 0C3.582 0 0 3.582 0 8s3.582 8 8 8 8-3.582 8-8-3.582-8-8-8zm0 .716c4.023 0 7.284 3.261 7.284 7.284S12.023 15.284 8 15.284.716 12.023.716 8 3.977.716 8 .716zm1.598 9.786l-.014-.079H7.178l-.014.079c-.093.628-.695 1.06-1.337.981-.521-.065-.922-.47-1.002-.981l-.014-.079H3.97c-.147 0-.268-.118-.268-.262V4.77c0-.144.12-.262.268-.262h5.508c.147 0 .268.118.268.262v1.885h1.19c.093 0 .174.04.227.118l1.096 1.623c.027.039.04.091.04.144v1.61c0 .143-.12.261-.267.261h-.107l-.013.079c-.094.628-.682 1.06-1.337.981-.495-.065-.91-.47-.976-.968zm-4.065.275c.094.091.227.157.361.183v.013h.094c.174 0 .334-.066.454-.183.12-.118.188-.275.188-.445 0-.17-.067-.328-.188-.458-.12-.118-.28-.184-.454-.184-.308 0-.575.21-.642.498-.013.039-.013.091-.013.13.013.17.08.328.2.446zM9.21 5.03H4.25v1.27h2.66c.147 0 .268.117.268.261 0 .144-.12.262-.268.262H4.25v3.063h.655l.027-.053c.013-.013.013-.026.026-.039v-.026c.014-.013.014-.026.014-.04 0-.013 0-.013.013-.026.027-.039.067-.078.094-.117.013-.014.013-.014.013-.027.04-.039.08-.078.134-.117l.04-.027c.04-.026.067-.052.107-.078l.053-.026c.04-.013.067-.04.107-.053.027-.013.04-.013.067-.026l.12-.04.08.014c.12-.026.255-.026.375 0l.053.013.12.04h.04c.014.012.028.012.041.012.04.014.067.027.107.053l.067.026.12.079.04.026c.094.078.174.17.24.275l.041.065c.013.013.013.026.027.04l.013.065H9.21V5.03zm2.353 4.45c.014.026.027.026.04.04l.174.17V8.616l-.976-1.427H9.745v2.513l.174-.17.013-.013.027-.026c.04-.026.067-.065.107-.092l.08-.052c.04-.026.08-.04.12-.052.027-.013.04-.027.054-.027.013 0 .013-.013.026-.013.04-.013.094-.026.134-.039l.027-.013c.013 0 .027-.013.04-.013.08-.013.147-.026.227-.026.08 0 .147.013.228.026h.04c.013 0 .026.013.04.013.053.013.093.026.134.04l.08.039c.04.026.08.039.12.065 0 .026.027.04.054.052.026.027.066.053.093.079zm-.909 1.492h.107c.36 0 .655-.288.655-.641 0-.04 0-.092-.013-.131-.04-.17-.134-.314-.281-.406-.147-.092-.321-.13-.481-.092-.254.053-.455.249-.508.498-.014.039-.014.091-.014.13-.013.315.227.576.535.642z"/>
        </g>
    </g>
</svg>
