<svg width="21" height="20" xmlns="http://www.w3.org/2000/svg">
    <defs>
        <filter color-interpolation-filters="auto" id="a">
            <feColorMatrix in="SourceGraphic" values="0 0 0 0 1.000000 0 0 0 0 1.000000 0 0 0 0 1.000000 0 0 0 1.000000 0"/>
        </filter>
    </defs>
    <g transform="translate(.551)" filter="url(#a)" fill="none" fill-rule="evenodd" stroke="">
        <g fill="#000" fill-rule="nonzero">
            <path d="M18.312 5.132c-.01-.538-.02-1.046-.02-1.538a.696.696 0 0 0-.694-.698c-2.97 0-5.23-.857-7.114-2.698a.692.692 0 0 0-.968 0C7.63 2.038 5.37 2.896 2.402 2.896a.696.696 0 0 0-.694.698c0 .492-.01 1-.02 1.539-.095 5.008-.225 11.866 8.084 14.76a.69.69 0 0 0 .455 0c8.31-2.894 8.18-9.753 8.085-14.76zM10 18.494c-7.127-2.601-7.02-8.3-6.924-13.335.006-.302.012-.595.016-.882C5.872 4.16 8.096 3.312 10 1.646c1.903 1.666 4.128 2.513 6.908 2.631.004.287.01.58.016.882.095 5.034.203 10.733-6.924 13.335z"/>
            <path d="M12.453 7.543 9.086 10.91 7.65 9.473a.698.698 0 0 0-.986.986l1.93 1.93a.696.696 0 0 0 .986 0l3.861-3.86a.698.698 0 1 0-.987-.986z"/>
        </g>
    </g>
</svg>
