<svg width="20" height="20" xmlns="http://www.w3.org/2000/svg">
    <defs>
        <filter color-interpolation-filters="auto" id="a">
            <feColorMatrix in="SourceGraphic" values="0 0 0 0 0.600000 0 0 0 0 0.600000 0 0 0 0 0.600000 0 0 0 1.000000 0"/>
        </filter>
    </defs>
    <g filter="url(#a)" fill="none" fill-rule="evenodd">
        <g fill="#000" fill-rule="nonzero">
            <path d="M17.813 2.727H2.188A2.19 2.19 0 0 0 0 4.915v9.375a2.19 2.19 0 0 0 2.188 2.187h15.624A2.19 2.19 0 0 0 20 14.29V4.915a2.19 2.19 0 0 0-2.188-2.188zM2.188 3.977h15.624c.517 0 .938.42.938.938v1.25H1.25v-1.25c0-.517.42-.938.938-.938zm15.624 11.25H2.188a.939.939 0 0 1-.937-.937V7.415h17.5v6.875c0 .517-.42.937-.938.937z"/>
            <path d="M4.375 13.352H3.75a.625.625 0 0 1-.625-.625v-.625c0-.345.28-.625.625-.625h.625c.345 0 .625.28.625.625v.625c0 .345-.28.625-.625.625z"/>
        </g>
    </g>
</svg>
