<svg width="32" height="32" xmlns="http://www.w3.org/2000/svg">
    <defs>
        <filter color-interpolation-filters="auto" id="a">
            <feColorMatrix in="SourceGraphic" values="0 0 0 0 0.200000 0 0 0 0 0.800000 0 0 0 0 0.400000 0 0 0 1.000000 0"/>
        </filter>
    </defs>
    <g filter="url(#a)" fill="none" fill-rule="evenodd">
        <g fill="#000" fill-rule="nonzero">
            <path d="M21.85 25.373H3.35a1.708 1.708 0 0 1-1.706-1.706V12.348h7.175l-1.644-1.643H1.644V8.492c0-.912.712-1.656 1.612-1.706L1.931 5.455A3.351 3.351 0 0 0 0 8.492v15.175c0 1.85 1.506 3.35 3.35 3.35h20.137l-1.637-1.644zM28.65 5.136H6.212L2.57 1.498l-1.15 1.15 2.494 2.494 1.643 1.644 3.919 3.919 1.644 1.643 13.025 13.025 1.644 1.644 3.643 3.644 1.15-1.15-2.494-2.494h.557c1.85 0 3.35-1.506 3.35-3.35V8.492a3.35 3.35 0 0 0-3.344-3.356zm1.706 18.531c0 .944-.769 1.706-1.706 1.706h-2.2L13.419 12.348h16.937v11.319zm0-12.962H11.775l-3.919-3.92H28.65c.944 0 1.706.77 1.706 1.707v2.213z"/>
        </g>
    </g>
</svg>
