<svg width="26" height="26" xmlns="http://www.w3.org/2000/svg">
    <path d="M26 10.423v-7.47c0-.448-.448-.896-.896-.896h-.15c-.448 0-.747.448-.747.896v5.378l-4.183-4.033c-2.09-2.241-5.228-3.287-8.216-3.287-1.942 0-3.884.448-5.677 1.494-4.63 2.54-7.02 7.918-5.826 12.997 1.195 5.079 5.677 8.963 10.906 9.262 5.228.299 10.158-2.988 11.801-7.918v-.597c0-.15-.299-.3-.448-.449h-.597l-.449.449c-1.494 4.183-5.676 7.02-10.158 6.722-4.482-.299-8.366-3.436-9.262-7.917C1.052 10.72 3.144 6.09 7.028 3.849l.299-.149c3.884-1.942 8.664-1.195 11.652 1.942l4.033 3.884h-5.228c-.448 0-.897.448-.897.897 0 .448.449.896.897.896h7.918l.149-.15c.149-.448.149-.448.149-.746z" fill="#3C6" fill-rule="evenodd"/>
</svg>
