<?xml version="1.0" encoding="UTF-8"?>
<svg width="18px" height="18px" viewBox="0 0 18 18" version="1.1" xmlns="http://www.w3.org/2000/svg" xmlns:xlink="http://www.w3.org/1999/xlink">
    <title>B40770CD-67DD-4C95-9113-DE971208A911</title>
    <g id="Store" stroke="none" stroke-width="1" fill="none" fill-rule="evenodd">
        <g id="HP---product-hover-after-adding-to-cart" transform="translate(-420.000000, -227.000000)" fill="#33CC66">
            <g id="Cart" transform="translate(340.000000, 150.000000)">
                <g id="Sub-menu-cart" transform="translate(0.000000, 70.000000)">
                    <g id="Delete-cart" transform="translate(16.000000, 6.000000)">
                        <g id="icon/trash" transform="translate(64.000002, 1.000000)">
                            <path d="M10.8181818,0 C12.1737898,0 13.2727273,1.09893743 13.2727273,2.45454545 L13.2727273,2.45454545 L13.272,3.272 L16.5454545,3.27272727 C16.9625647,3.27272727 17.3067743,3.58485151 17.3572616,3.9882781 L17.3636364,4.09090909 C17.3636364,4.54277843 16.9973239,4.90909091 16.5454545,4.90909091 L16.5454545,4.90909091 L15.727,4.909 L15.7272727,15.5454545 C15.7272727,16.8468382 14.714492,17.9116743 13.4341143,17.994779 L13.2727273,18 L5.09090909,18 C3.73530107,18 2.63636364,16.9010626 2.63636364,15.5454545 L2.63636364,15.5454545 L2.636,4.909 L1.81818182,4.90909091 C1.40107166,4.90909091 1.05686202,4.59696667 1.0063748,4.19354008 L1,4.09090909 C1,3.63903975 1.36631248,3.27272727 1.81818182,3.27272727 L1.81818182,3.27272727 L5.09,3.272 L5.09090909,2.45454545 C5.09090909,1.15316175 6.10368983,0.0883256675 7.38406751,0.0052209946 L7.54545455,0 Z M14.09,4.909 L4.272,4.909 L4.27272727,15.5454545 C4.27272727,15.9625647 4.58485151,16.3067743 4.9882781,16.3572616 L5.09090909,16.3636364 L13.2727273,16.3636364 C13.7245966,16.3636364 14.0909091,15.9973239 14.0909091,15.5454545 L14.0909091,15.5454545 L14.09,4.909 Z M7.54545455,7.36363636 C7.99732389,7.36363636 8.36363636,7.72994884 8.36363636,8.18181818 L8.36363636,8.18181818 L8.36363636,13.0909091 C8.36363636,13.5427784 7.99732389,13.9090909 7.54545455,13.9090909 C7.0935852,13.9090909 6.72727273,13.5427784 6.72727273,13.0909091 L6.72727273,13.0909091 L6.72727273,8.18181818 C6.72727273,7.72994884 7.0935852,7.36363636 7.54545455,7.36363636 Z M10.8181818,7.36363636 C11.2700512,7.36363636 11.6363636,7.72994884 11.6363636,8.18181818 L11.6363636,8.18181818 L11.6363636,13.0909091 C11.6363636,13.5427784 11.2700512,13.9090909 10.8181818,13.9090909 C10.3663125,13.9090909 10,13.5427784 10,13.0909091 L10,13.0909091 L10,8.18181818 C10,7.72994884 10.3663125,7.36363636 10.8181818,7.36363636 Z M10.8181818,1.63636364 L7.54545455,1.63636364 C7.0935852,1.63636364 6.72727273,2.00267611 6.72727273,2.45454545 L6.72727273,2.45454545 L6.727,3.272 L11.636,3.272 L11.6363636,2.45454545 C11.6363636,2.03743529 11.3242394,1.69322566 10.9208128,1.64273843 L10.8181818,1.63636364 Z" id="Combined-Shape"></path>
                        </g>
                    </g>
                </g>
            </g>
        </g>
    </g>
</svg>