<?xml version="1.0" encoding="UTF-8"?>
<svg width="37px" height="32px" viewBox="0 0 37 32" version="1.1" xmlns="http://www.w3.org/2000/svg" xmlns:xlink="http://www.w3.org/1999/xlink">
    <title>5BBA3E68-99EF-4FDA-87BF-C55CFA2A5AD1</title>
    <g id="Store" stroke="none" stroke-width="1" fill="none" fill-rule="evenodd">
        <g id="HP---product-hover-after-adding-to-cart" transform="translate(-575.000000, -169.000000)" fill="#fff">
            <g id="Cart" transform="translate(340.000000, 150.000000)">
                <g id="icon/basket" transform="translate(235.000000, 19.000000)">
                    <path d="M34.7371737,10.1056809 L31.0184064,10.1056809 L25.842295,0.561611925 C25.5630037,0.0466459474 24.9090904,-0.149816281 24.3813481,0.122825179 C23.853822,0.395466639 23.652568,1.03402164 23.9318592,1.54898762 L28.5725183,10.1056809 L8.22302332,10.1056809 L12.8636824,1.54898762 C13.1429736,1.03402164 12.9417196,0.395466639 12.4141935,0.122825179 C11.8868115,-0.14974594 11.2325379,0.0466459474 10.9532466,0.561611925 L5.77706317,10.1056809 L2.0646368,10.1056809 C0.926215107,10.1056809 0,11.0098432 0,12.1211597 L0,14.4649899 C0,15.5295296 0.849979259,16.403375 1.92225303,16.4751228 L5.54828357,31.191642 C5.66508726,31.6658102 6.09958836,32 6.59915654,32 L30.1955204,32 C30.6948724,32 31.1292294,31.6660212 31.2462492,31.1922047 L34.8807825,16.4749821 C35.9524798,16.4026716 36.8018105,15.5291076 36.8018105,14.4649899 L36.8018105,12.1211597 C36.8018105,11.0098432 35.8756675,10.1056809 34.7371737,10.1056809 L34.7371737,10.1056809 Z" id="Shape"></path>
                </g>
            </g>
        </g>
    </g>
</svg>